<svg width="1440" height="1110" viewBox="0 0 1440 1110" fill="none" xmlns="http://www.w3.org/2000/svg">
<rect y="347" width="1440" height="763" fill="#6CE062"/>
<rect width="1440" height="347" fill="#18CEF6"/>
<path d="M638 195.714C638 209.127 625.129 220 609.25 220H379.25C363.371 220 350.5 209.127 350.5 195.714C350.5 191.286 351.925 187.146 354.377 183.572H206.75C190.871 183.572 178 172.699 178 159.286C178 145.873 190.871 135 206.75 135H436.75C452.629 135 465.5 145.873 465.5 159.286C465.5 163.714 464.075 167.854 461.623 171.428H609.25C625.129 171.428 638 182.301 638 195.714Z" fill="#A9D5BB"/>
<path d="M466.001 159.267C466.001 172.67 453.097 183.533 437.177 183.533H249.824C233.904 183.533 221 172.67 221 159.267C221 145.864 233.904 135 249.824 135H437.177C453.095 135 466.001 145.864 466.001 159.267ZM682.176 268.467H610.118C594.198 268.467 581.294 279.33 581.294 292.733C581.294 306.136 594.198 317 610.118 317H682.176C698.096 317 711 306.136 711 292.733C711 279.33 698.096 268.467 682.176 268.467Z" fill="#C5EAD4"/>
<path d="M963.5 183.267C963.5 196.67 971.9 207.533 982.264 207.533H1104.24C1114.6 207.533 1123 196.67 1123 183.267C1123 169.864 1114.6 159 1104.24 159H982.264C971.901 159 963.5 169.864 963.5 183.267ZM822.765 228.467H869.676C880.04 228.467 888.441 239.33 888.441 252.733C888.441 266.136 880.04 277 869.676 277H822.765C812.401 277 804 266.136 804 252.733C804 239.33 812.401 228.467 822.765 228.467Z" fill="#C5EAD4"/>
<path d="M63.7648 277H110.676C121.04 277 129.441 287.864 129.441 301.267C129.441 314.67 121.04 325.533 110.676 325.533H63.7648C53.4008 325.533 45 314.67 45 301.267C45 287.864 53.4008 277 63.7648 277Z" fill="#C5EAD4"/>
<path d="M1402 201C1402 246.287 1365.29 283 1320 283C1274.71 283 1238 246.286 1238 201C1238 155.714 1274.71 119 1320 119C1365.29 119 1402 155.713 1402 201Z" fill="#FFFF81"/>
<path d="M1363 201C1363 224.748 1343.75 244 1320 244C1296.25 244 1277 224.749 1277 201C1277 177.251 1296.25 158 1320 158C1343.75 158 1363 177.251 1363 201Z" fill="#FFF145"/>
<path d="M415.706 580.143C415.706 598.802 417.627 597.995 411.644 597.995C405.661 597.995 408.394 598.034 408.394 579.376C408.394 560.717 388.052 549.623 392.687 545.4C396.478 541.945 415.706 561.485 415.706 580.143Z" fill="#38B83F"/>
<path d="M407.642 579.64C407.642 598.298 411.384 597.492 405.401 597.492C399.418 597.492 403.116 597.534 403.116 578.876C403.116 573 396.5 567 399.5 563.5C404.5 562 407.642 572.496 407.642 579.64Z" fill="#26B42E"/>
<path d="M418.861 584.381C418.861 598.611 419.768 597.996 416.945 597.996C414.122 597.996 415.411 598.026 415.411 583.795C415.411 569.564 408.485 557.794 411.99 556.055C415.411 554.968 418.861 570.15 418.861 584.381Z" fill="#26A32D"/>
<path d="M424.65 580.24C424.65 598.797 426.67 597.995 420.377 597.995C414.084 597.995 418.515 597.636 418.515 579.079C418.515 560.522 418.8 536.996 424.65 538.033C432.188 539.369 424.65 561.683 424.65 580.24Z" fill="#38B83F"/>
<path d="M422.269 585.534C422.269 598.56 420.509 597.996 425.993 597.996C431.477 597.996 428.972 598.024 428.972 584.998C428.972 571.973 447.619 564.227 443.371 561.279C439.895 558.867 422.269 572.509 422.269 585.534Z" fill="#38C840"/>
<path d="M734.706 700.143C734.706 718.802 736.627 717.995 730.644 717.995C724.661 717.995 727.394 718.034 727.394 699.376C727.394 680.717 707.052 669.623 711.687 665.4C715.478 661.945 734.706 681.485 734.706 700.143Z" fill="#38B83F"/>
<path d="M726.642 699.64C726.642 718.298 730.384 717.492 724.401 717.492C718.418 717.492 722.116 717.534 722.116 698.876C722.116 693 715.5 687 718.5 683.5C723.5 682 726.642 692.496 726.642 699.64Z" fill="#26B42E"/>
<path d="M737.861 704.381C737.861 718.611 738.768 717.996 735.945 717.996C733.122 717.996 734.411 718.026 734.411 703.795C734.411 689.564 727.485 677.794 730.99 676.055C734.411 674.968 737.861 690.15 737.861 704.381Z" fill="#26A32D"/>
<path d="M743.65 700.24C743.65 718.797 745.67 717.995 739.377 717.995C733.084 717.995 737.515 717.636 737.515 699.079C737.515 680.522 737.8 656.996 743.65 658.033C751.188 659.369 743.65 681.683 743.65 700.24Z" fill="#38B83F"/>
<path d="M741.269 705.534C741.269 718.56 739.509 717.996 744.993 717.996C750.477 717.996 747.972 718.024 747.972 704.998C747.972 691.973 766.619 684.227 762.371 681.279C758.895 678.867 741.269 692.509 741.269 705.534Z" fill="#38C840"/>
<path d="M141.706 1015.14C141.706 1033.8 143.627 1032.99 137.644 1032.99C131.661 1032.99 134.394 1033.03 134.394 1014.38C134.394 995.717 114.052 984.623 118.687 980.4C122.478 976.945 141.706 996.485 141.706 1015.14Z" fill="#38B83F"/>
<path d="M133.642 1014.64C133.642 1033.3 137.384 1032.49 131.401 1032.49C125.418 1032.49 129.116 1032.53 129.116 1013.88C129.116 1008 122.5 1002 125.5 998.5C130.5 997 133.642 1007.5 133.642 1014.64Z" fill="#26B42E"/>
<path d="M144.861 1019.38C144.861 1033.61 145.768 1033 142.945 1033C140.122 1033 141.411 1033.03 141.411 1018.79C141.411 1004.56 134.485 992.794 137.99 991.055C141.411 989.968 144.861 1005.15 144.861 1019.38Z" fill="#26A32D"/>
<path d="M150.65 1015.24C150.65 1033.8 152.67 1032.99 146.377 1032.99C140.084 1032.99 144.515 1032.64 144.515 1014.08C144.515 995.522 144.8 971.996 150.65 973.033C158.188 974.369 150.65 996.683 150.65 1015.24Z" fill="#38B83F"/>
<path d="M148.269 1020.53C148.269 1033.56 146.509 1033 151.993 1033C157.477 1033 154.972 1033.02 154.972 1020C154.972 1006.97 173.619 999.227 169.371 996.279C165.895 993.867 148.269 1007.51 148.269 1020.53Z" fill="#38C840"/>
<path d="M97.7064 475.143C97.7064 493.802 99.6269 492.995 93.6441 492.995C87.6613 492.995 90.3942 493.034 90.3942 474.376C90.3942 455.717 70.0525 444.623 74.6866 440.4C78.4781 436.945 97.7064 456.485 97.7064 475.143Z" fill="#38B83F"/>
<path d="M89.6416 474.64C89.6416 493.298 93.3836 492.492 87.4007 492.492C81.4179 492.492 85.1162 492.534 85.1162 473.876C85.1162 468 78.5 462 81.5 458.5C86.5 457 89.6416 467.496 89.6416 474.64Z" fill="#26B42E"/>
<path d="M100.861 479.381C100.861 493.611 101.768 492.996 98.9448 492.996C96.122 492.996 97.4115 493.026 97.4115 478.795C97.4115 464.564 90.4852 452.794 93.9901 451.055C97.4115 449.968 100.861 465.15 100.861 479.381Z" fill="#26A32D"/>
<path d="M106.65 475.24C106.65 493.797 108.67 492.995 102.377 492.995C96.0841 492.995 100.515 492.636 100.515 474.079C100.515 455.522 100.8 431.996 106.65 433.033C114.188 434.369 106.65 456.683 106.65 475.24Z" fill="#38B83F"/>
<path d="M104.269 480.534C104.269 493.56 102.509 492.996 107.993 492.996C113.477 492.996 110.972 493.024 110.972 479.998C110.972 466.973 129.619 459.227 125.371 456.279C121.895 453.867 104.269 467.509 104.269 480.534Z" fill="#38C840"/>
<path d="M144.706 478.143C144.706 496.802 146.627 495.995 140.644 495.995C134.661 495.995 137.394 496.034 137.394 477.376C137.394 458.717 117.052 447.623 121.687 443.4C125.478 439.945 144.706 459.485 144.706 478.143Z" fill="#38B83F"/>
<path d="M136.642 477.64C136.642 496.298 140.384 495.492 134.401 495.492C128.418 495.492 132.116 495.534 132.116 476.876C132.116 471 125.5 465 128.5 461.5C133.5 460 136.642 470.496 136.642 477.64Z" fill="#26B42E"/>
<path d="M147.861 482.381C147.861 496.611 148.768 495.996 145.945 495.996C143.122 495.996 144.411 496.026 144.411 481.795C144.411 467.564 137.485 455.794 140.99 454.055C144.411 452.968 147.861 468.15 147.861 482.381Z" fill="#26A32D"/>
<path d="M153.65 478.24C153.65 496.797 155.67 495.995 149.377 495.995C143.084 495.995 147.515 495.636 147.515 477.079C147.515 458.522 147.8 434.996 153.65 436.033C161.188 437.369 153.65 459.683 153.65 478.24Z" fill="#38B83F"/>
<path d="M151.269 483.534C151.269 496.56 149.509 495.996 154.993 495.996C160.477 495.996 157.972 496.024 157.972 482.998C157.972 469.973 176.619 462.227 172.371 459.279C168.895 456.867 151.269 470.509 151.269 483.534Z" fill="#38C840"/>
<path d="M120.706 490.143C120.706 508.802 122.627 507.995 116.644 507.995C110.661 507.995 113.394 508.034 113.394 489.376C113.394 470.717 93.0525 459.623 97.6866 455.4C101.478 451.945 120.706 471.485 120.706 490.143Z" fill="#38B83F"/>
<path d="M112.642 489.64C112.642 508.298 116.384 507.492 110.401 507.492C104.418 507.492 108.116 507.534 108.116 488.876C108.116 483 101.5 477 104.5 473.5C109.5 472 112.642 482.496 112.642 489.64Z" fill="#26B42E"/>
<path d="M123.861 494.381C123.861 508.611 124.768 507.996 121.945 507.996C119.122 507.996 120.411 508.026 120.411 493.795C120.411 479.564 113.485 467.794 116.99 466.055C120.411 464.968 123.861 480.15 123.861 494.381Z" fill="#26A32D"/>
<path d="M129.65 490.24C129.65 508.797 131.67 507.995 125.377 507.995C119.084 507.995 123.515 507.636 123.515 489.079C123.515 470.522 123.8 446.996 129.65 448.033C137.188 449.369 129.65 471.683 129.65 490.24Z" fill="#38B83F"/>
<path d="M127.269 495.534C127.269 508.56 125.509 507.996 130.993 507.996C136.477 507.996 133.972 508.024 133.972 494.998C133.972 481.973 152.619 474.227 148.371 471.279C144.895 468.867 127.269 482.509 127.269 495.534Z" fill="#38C840"/>
<path d="M994.706 502.143C994.706 520.802 996.627 519.995 990.644 519.995C984.661 519.995 987.394 520.034 987.394 501.376C987.394 482.717 967.052 471.623 971.687 467.4C975.478 463.945 994.706 483.485 994.706 502.143Z" fill="#38B83F"/>
<path d="M986.642 501.64C986.642 520.298 990.384 519.492 984.401 519.492C978.418 519.492 982.116 519.534 982.116 500.876C982.116 495 975.5 489 978.5 485.5C983.5 484 986.642 494.496 986.642 501.64Z" fill="#26B42E"/>
<path d="M997.861 506.381C997.861 520.611 998.768 519.996 995.945 519.996C993.122 519.996 994.411 520.026 994.411 505.795C994.411 491.564 987.485 479.794 990.99 478.055C994.411 476.968 997.861 492.15 997.861 506.381Z" fill="#26A32D"/>
<path d="M1003.65 502.24C1003.65 520.797 1005.67 519.995 999.377 519.995C993.084 519.995 997.515 519.636 997.515 501.079C997.515 482.522 997.8 458.996 1003.65 460.033C1011.19 461.369 1003.65 483.683 1003.65 502.24Z" fill="#38B83F"/>
<path d="M1001.27 507.534C1001.27 520.56 999.509 519.996 1004.99 519.996C1010.48 519.996 1007.97 520.024 1007.97 506.998C1007.97 493.973 1026.62 486.227 1022.37 483.279C1018.9 480.867 1001.27 494.509 1001.27 507.534Z" fill="#38C840"/>
<path d="M965.706 507.143C965.706 525.802 967.627 524.995 961.644 524.995C955.661 524.995 958.394 525.034 958.394 506.376C958.394 487.717 938.052 476.623 942.687 472.4C946.478 468.945 965.706 488.485 965.706 507.143Z" fill="#38B83F"/>
<path d="M957.642 501.64C957.642 520.298 961.384 519.492 955.401 519.492C949.418 519.492 953.116 519.534 953.116 500.876C953.116 495 946.5 489 949.5 485.5C954.5 484 957.642 494.496 957.642 501.64Z" fill="#26B42E"/>
<path d="M968.861 506.381C968.861 520.611 969.768 519.996 966.945 519.996C964.122 519.996 965.411 520.026 965.411 505.795C965.411 491.564 958.485 479.794 961.99 478.055C965.411 476.968 968.861 492.15 968.861 506.381Z" fill="#26A32D"/>
<path d="M974.65 502.24C974.65 520.797 976.67 519.995 970.377 519.995C964.084 519.995 968.515 519.636 968.515 501.079C968.515 482.522 968.8 458.996 974.65 460.033C982.188 461.369 974.65 483.683 974.65 502.24Z" fill="#38B83F"/>
<path d="M972.269 510.534C972.269 523.56 970.509 522.996 975.993 522.996C981.477 522.996 978.972 523.024 978.972 509.998C978.972 496.973 997.619 489.227 993.371 486.279C989.895 483.867 972.269 497.509 972.269 510.534Z" fill="#38C840"/>
<path d="M581.706 943.143C581.706 961.802 583.627 960.995 577.644 960.995C571.661 960.995 574.394 961.034 574.394 942.376C574.394 923.717 554.052 912.623 558.687 908.4C562.478 904.945 581.706 924.485 581.706 943.143Z" fill="#38B83F"/>
<path d="M573.642 942.64C573.642 961.298 577.384 960.492 571.401 960.492C565.418 960.492 569.116 960.534 569.116 941.876C569.116 936 562.5 930 565.5 926.5C570.5 925 573.642 935.496 573.642 942.64Z" fill="#26B42E"/>
<path d="M584.861 947.381C584.861 961.611 585.768 960.996 582.945 960.996C580.122 960.996 581.411 961.026 581.411 946.795C581.411 932.564 574.485 920.794 577.99 919.055C581.411 917.968 584.861 933.15 584.861 947.381Z" fill="#26A32D"/>
<path d="M590.65 943.24C590.65 961.797 592.67 960.995 586.377 960.995C580.084 960.995 584.515 960.636 584.515 942.079C584.515 923.522 584.8 899.996 590.65 901.033C598.188 902.369 590.65 924.683 590.65 943.24Z" fill="#38B83F"/>
<path d="M588.269 948.534C588.269 961.56 586.509 960.996 591.993 960.996C597.477 960.996 594.972 961.024 594.972 947.998C594.972 934.973 613.619 927.227 609.371 924.279C605.895 921.867 588.269 935.509 588.269 948.534Z" fill="#38C840"/>
<path d="M244.706 742.143C244.706 760.802 246.627 759.995 240.644 759.995C234.661 759.995 237.394 760.034 237.394 741.376C237.394 722.717 217.052 711.623 221.687 707.4C225.478 703.945 244.706 723.485 244.706 742.143Z" fill="#38B83F"/>
<path d="M236.642 741.64C236.642 760.298 240.384 759.492 234.401 759.492C228.418 759.492 232.116 759.534 232.116 740.876C232.116 735 225.5 729 228.5 725.5C233.5 724 236.642 734.496 236.642 741.64Z" fill="#26B42E"/>
<path d="M247.861 746.381C247.861 760.611 248.768 759.996 245.945 759.996C243.122 759.996 244.411 760.026 244.411 745.795C244.411 731.564 237.485 719.794 240.99 718.055C244.411 716.968 247.861 732.15 247.861 746.381Z" fill="#26A32D"/>
<path d="M253.65 742.24C253.65 760.797 255.67 759.995 249.377 759.995C243.084 759.995 247.515 759.636 247.515 741.079C247.515 722.522 247.8 698.996 253.65 700.033C261.188 701.369 253.65 723.683 253.65 742.24Z" fill="#38B83F"/>
<path d="M251.269 747.534C251.269 760.56 249.509 759.996 254.993 759.996C260.477 759.996 257.972 760.024 257.972 746.998C257.972 733.973 276.619 726.227 272.371 723.279C268.895 720.867 251.269 734.509 251.269 747.534Z" fill="#38C840"/>
<path d="M1083.71 934.143C1083.71 952.802 1085.63 951.995 1079.64 951.995C1073.66 951.995 1076.39 952.034 1076.39 933.376C1076.39 914.717 1056.05 903.623 1060.69 899.4C1064.48 895.945 1083.71 915.485 1083.71 934.143Z" fill="#38B83F"/>
<path d="M1075.64 933.64C1075.64 952.298 1079.38 951.492 1073.4 951.492C1067.42 951.492 1071.12 951.534 1071.12 932.876C1071.12 927 1064.5 921 1067.5 917.5C1072.5 916 1075.64 926.496 1075.64 933.64Z" fill="#26B42E"/>
<path d="M1086.86 938.381C1086.86 952.611 1087.77 951.996 1084.94 951.996C1082.12 951.996 1083.41 952.026 1083.41 937.795C1083.41 923.564 1076.49 911.794 1079.99 910.055C1083.41 908.968 1086.86 924.15 1086.86 938.381Z" fill="#26A32D"/>
<path d="M1092.65 934.24C1092.65 952.797 1094.67 951.995 1088.38 951.995C1082.08 951.995 1086.52 951.636 1086.52 933.079C1086.52 914.522 1086.8 890.996 1092.65 892.033C1100.19 893.369 1092.65 915.683 1092.65 934.24Z" fill="#38B83F"/>
<path d="M1090.27 939.534C1090.27 952.56 1088.51 951.996 1093.99 951.996C1099.48 951.996 1096.97 952.024 1096.97 938.998C1096.97 925.973 1115.62 918.227 1111.37 915.279C1107.9 912.867 1090.27 926.509 1090.27 939.534Z" fill="#38C840"/>
<path d="M1360.71 579.143C1360.71 597.802 1362.63 596.995 1356.64 596.995C1350.66 596.995 1353.39 597.034 1353.39 578.376C1353.39 559.717 1333.05 548.623 1337.69 544.4C1341.48 540.945 1360.71 560.485 1360.71 579.143Z" fill="#38B83F"/>
<path d="M1352.64 578.64C1352.64 597.298 1356.38 596.492 1350.4 596.492C1344.42 596.492 1348.12 596.534 1348.12 577.876C1348.12 572 1341.5 566 1344.5 562.5C1349.5 561 1352.64 571.496 1352.64 578.64Z" fill="#26B42E"/>
<path d="M1363.86 583.381C1363.86 597.611 1364.77 596.996 1361.94 596.996C1359.12 596.996 1360.41 597.026 1360.41 582.795C1360.41 568.564 1353.49 556.794 1356.99 555.055C1360.41 553.968 1363.86 569.15 1363.86 583.381Z" fill="#26A32D"/>
<path d="M1369.65 579.24C1369.65 597.797 1371.67 596.995 1365.38 596.995C1359.08 596.995 1363.52 596.636 1363.52 578.079C1363.52 559.522 1363.8 535.996 1369.65 537.033C1377.19 538.369 1369.65 560.683 1369.65 579.24Z" fill="#38B83F"/>
<path d="M1367.27 584.534C1367.27 597.56 1365.51 596.996 1370.99 596.996C1376.48 596.996 1373.97 597.024 1373.97 583.998C1373.97 570.973 1392.62 563.227 1388.37 560.279C1384.9 557.867 1367.27 571.509 1367.27 584.534Z" fill="#38C840"/>
<path d="M297.535 713.513C297.307 713.513 297.082 713.467 296.871 713.377C296.66 713.288 296.469 713.156 296.308 712.99C296.147 712.824 296.019 712.627 295.932 712.41C295.845 712.193 295.8 711.961 295.8 711.726V696.465C295.8 695.991 295.983 695.536 296.308 695.201C296.633 694.866 297.075 694.678 297.535 694.678C297.995 694.678 298.436 694.866 298.761 695.201C299.087 695.536 299.27 695.991 299.27 696.465V711.727C299.27 711.961 299.225 712.194 299.138 712.41C299.051 712.627 298.923 712.824 298.762 712.99C298.601 713.156 298.41 713.288 298.199 713.377C297.989 713.467 297.763 713.513 297.535 713.513Z" fill="#38B83F"/>
<path d="M297.507 715C297.276 715 297.046 714.954 296.832 714.863C296.618 714.772 296.424 714.64 296.26 714.472C296.096 714.304 295.966 714.105 295.878 713.886C295.789 713.667 295.743 713.433 295.744 713.196C295.744 706.19 286.136 700.27 274.764 700.27C273.789 700.27 273 699.463 273 698.466C273 697.468 273.789 696.661 274.764 696.661C288.507 696.661 299.27 703.924 299.27 713.196C299.27 713.433 299.224 713.667 299.136 713.886C299.047 714.105 298.918 714.304 298.754 714.472C298.59 714.639 298.396 714.772 298.182 714.863C297.968 714.953 297.739 715 297.507 715Z" fill="#38B83F"/>
<path d="M320.303 696.621C311.265 696.621 303.535 699.771 299.273 704.557V696.487C299.274 696.249 299.228 696.014 299.139 695.795C299.051 695.575 298.921 695.376 298.757 695.208C298.593 695.04 298.398 694.907 298.184 694.816C297.969 694.725 297.74 694.678 297.508 694.678C297.43 694.678 297.363 694.714 297.287 694.725V714.961C297.354 714.968 297.412 715 297.48 715C297.487 715 297.492 714.996 297.499 714.996C297.506 714.996 297.511 715 297.518 715C297.75 715 297.98 714.953 298.194 714.862C298.409 714.772 298.603 714.638 298.767 714.471C298.931 714.303 299.062 714.103 299.15 713.884C299.239 713.664 299.285 713.429 299.284 713.192C299.284 706.171 308.912 700.238 320.303 700.238C321.279 700.238 322.07 699.429 322.07 698.43C322.07 697.43 321.279 696.621 320.303 696.621Z" fill="#38B83F"/>
<path d="M282.558 671.25C280.015 671.25 277.957 673.984 277.957 677.36C277.957 679.537 278.815 681.45 280.106 682.533C280.816 683.125 281.656 683.471 282.558 683.471L282.579 683.45C280.781 685.224 281.283 688.601 283.699 690.986C285.256 692.528 287.233 693.278 288.921 693.141C289.845 693.061 290.688 692.72 291.326 692.09L291.336 692.115C291.338 694.624 294.109 696.661 297.523 696.661C299.731 696.661 301.66 695.808 302.757 694.534C303.357 693.832 303.709 693.003 303.709 692.112H303.712C304.35 692.745 305.192 693.086 306.116 693.164C307.806 693.299 309.78 692.548 311.341 691.006C313.755 688.621 314.257 685.247 312.459 683.471L312.511 683.476C313.414 683.478 314.253 683.13 314.963 682.54C316.256 681.456 317.113 679.544 317.113 677.368C317.113 673.993 315.054 671.256 312.511 671.256L312.536 671.227C313.173 670.597 313.518 669.765 313.598 668.854C313.734 667.184 312.975 665.232 311.418 663.693C309 661.305 305.586 660.808 303.789 662.584V662.546C303.789 660.034 301.019 658 297.603 658C295.399 658 293.463 658.848 292.369 660.124C291.768 660.825 291.418 661.655 291.418 662.546L291.374 662.536C289.577 660.762 286.101 661.325 283.687 663.713C282.129 665.251 281.367 667.205 281.504 668.872C281.582 669.784 281.929 670.617 282.566 671.245L282.558 671.25Z" fill="#FCBF49"/>
<path d="M297.287 696.644C297.355 696.648 297.419 696.661 297.49 696.661C298.097 696.661 298.675 696.585 299.23 696.465C299.247 696.461 299.265 696.451 299.282 696.447C299.655 696.365 300.011 696.258 300.35 696.128C300.521 696.062 300.678 695.983 300.839 695.907C301.077 695.797 301.307 695.672 301.529 695.532C301.648 695.457 301.77 695.381 301.882 695.299C302.196 695.064 302.492 694.817 302.733 694.534C303.333 693.833 303.686 693.003 303.686 692.112H303.689C304.328 692.745 305.172 693.086 306.097 693.165C307.79 693.299 309.768 692.549 311.331 691.007C313.75 688.622 314.252 685.247 312.452 683.471L312.504 683.476C313.408 683.478 314.248 683.131 314.96 682.54C316.255 681.456 317.113 679.545 317.113 677.368C317.113 673.993 315.051 671.256 312.504 671.256L312.528 671.227C313.167 670.597 313.512 669.766 313.593 668.854C313.729 667.184 312.968 665.232 311.408 663.693C308.986 661.305 305.567 660.808 303.766 662.584V662.546C303.766 660.034 300.992 658 297.57 658C297.472 658 297.383 658.024 297.287 658.028V696.644Z" fill="#DEA73D"/>
<path d="M292.826 677.083C292.826 678.331 293.322 679.529 294.205 680.412C295.088 681.295 296.286 681.791 297.535 681.791C298.784 681.791 299.981 681.295 300.864 680.412C301.747 679.529 302.243 678.331 302.243 677.083C302.243 675.834 301.747 674.636 300.864 673.753C299.981 672.87 298.784 672.374 297.535 672.374C296.286 672.374 295.088 672.87 294.205 673.753C293.322 674.636 292.826 675.834 292.826 677.083Z" fill="#E5226B"/>
<path d="M297.287 672.394V681.77C297.361 681.772 297.43 681.791 297.504 681.791C300.12 681.791 302.243 679.684 302.243 677.083C302.243 674.481 300.12 672.374 297.504 672.374C297.43 672.374 297.361 672.393 297.287 672.394Z" fill="#C9005B"/>
<path d="M402.535 1067.51C402.307 1067.51 402.082 1067.47 401.871 1067.38C401.66 1067.29 401.469 1067.16 401.308 1066.99C401.147 1066.82 401.019 1066.63 400.932 1066.41C400.845 1066.19 400.8 1065.96 400.8 1065.73V1050.46C400.8 1049.99 400.983 1049.54 401.308 1049.2C401.633 1048.87 402.075 1048.68 402.535 1048.68C402.995 1048.68 403.436 1048.87 403.761 1049.2C404.087 1049.54 404.27 1049.99 404.27 1050.46V1065.73C404.27 1065.96 404.225 1066.19 404.138 1066.41C404.051 1066.63 403.923 1066.82 403.762 1066.99C403.601 1067.16 403.41 1067.29 403.199 1067.38C402.989 1067.47 402.763 1067.51 402.535 1067.51Z" fill="#38B83F"/>
<path d="M402.507 1069C402.276 1069 402.046 1068.95 401.832 1068.86C401.618 1068.77 401.424 1068.64 401.26 1068.47C401.096 1068.3 400.966 1068.11 400.878 1067.89C400.789 1067.67 400.743 1067.43 400.744 1067.2C400.744 1060.19 391.136 1054.27 379.764 1054.27C378.789 1054.27 378 1053.46 378 1052.47C378 1051.47 378.789 1050.66 379.764 1050.66C393.507 1050.66 404.27 1057.92 404.27 1067.2C404.27 1067.43 404.224 1067.67 404.136 1067.89C404.047 1068.11 403.918 1068.3 403.754 1068.47C403.59 1068.64 403.396 1068.77 403.182 1068.86C402.968 1068.95 402.739 1069 402.507 1069Z" fill="#38B83F"/>
<path d="M425.303 1050.62C416.265 1050.62 408.535 1053.77 404.273 1058.56V1050.49C404.274 1050.25 404.228 1050.01 404.139 1049.79C404.051 1049.58 403.921 1049.38 403.757 1049.21C403.593 1049.04 403.398 1048.91 403.184 1048.82C402.969 1048.73 402.74 1048.68 402.508 1048.68C402.43 1048.68 402.363 1048.71 402.287 1048.72V1068.96C402.354 1068.97 402.412 1069 402.48 1069C402.487 1069 402.492 1069 402.499 1069C402.506 1069 402.511 1069 402.518 1069C402.75 1069 402.98 1068.95 403.194 1068.86C403.409 1068.77 403.603 1068.64 403.767 1068.47C403.931 1068.3 404.062 1068.1 404.15 1067.88C404.239 1067.66 404.285 1067.43 404.284 1067.19C404.284 1060.17 413.912 1054.24 425.303 1054.24C426.279 1054.24 427.07 1053.43 427.07 1052.43C427.07 1051.43 426.279 1050.62 425.303 1050.62Z" fill="#38B83F"/>
<path d="M387.558 1025.25C385.015 1025.25 382.957 1027.98 382.957 1031.36C382.957 1033.54 383.815 1035.45 385.106 1036.53C385.816 1037.13 386.656 1037.47 387.558 1037.47L387.579 1037.45C385.781 1039.22 386.283 1042.6 388.699 1044.99C390.256 1046.53 392.233 1047.28 393.921 1047.14C394.845 1047.06 395.688 1046.72 396.326 1046.09L396.336 1046.12C396.338 1048.62 399.109 1050.66 402.523 1050.66C404.731 1050.66 406.66 1049.81 407.757 1048.53C408.357 1047.83 408.709 1047 408.709 1046.11H408.712C409.35 1046.74 410.192 1047.09 411.116 1047.16C412.806 1047.3 414.78 1046.55 416.341 1045.01C418.755 1042.62 419.257 1039.25 417.459 1037.47L417.511 1037.48C418.414 1037.48 419.253 1037.13 419.963 1036.54C421.256 1035.46 422.113 1033.54 422.113 1031.37C422.113 1027.99 420.054 1025.26 417.511 1025.26L417.536 1025.23C418.173 1024.6 418.518 1023.77 418.598 1022.85C418.734 1021.18 417.975 1019.23 416.418 1017.69C414 1015.31 410.586 1014.81 408.789 1016.58V1016.55C408.789 1014.03 406.019 1012 402.603 1012C400.399 1012 398.463 1012.85 397.369 1014.12C396.768 1014.83 396.418 1015.66 396.418 1016.55L396.374 1016.54C394.577 1014.76 391.101 1015.32 388.687 1017.71C387.129 1019.25 386.367 1021.2 386.504 1022.87C386.582 1023.78 386.929 1024.62 387.566 1025.24L387.558 1025.25Z" fill="#FCBF49"/>
<path d="M402.287 1050.64C402.355 1050.65 402.419 1050.66 402.49 1050.66C403.097 1050.66 403.675 1050.59 404.23 1050.46C404.247 1050.46 404.265 1050.45 404.282 1050.45C404.655 1050.36 405.011 1050.26 405.35 1050.13C405.521 1050.06 405.678 1049.98 405.839 1049.91C406.077 1049.8 406.307 1049.67 406.529 1049.53C406.648 1049.46 406.77 1049.38 406.882 1049.3C407.196 1049.06 407.492 1048.82 407.733 1048.53C408.333 1047.83 408.686 1047 408.686 1046.11H408.689C409.328 1046.74 410.172 1047.09 411.097 1047.16C412.79 1047.3 414.768 1046.55 416.331 1045.01C418.75 1042.62 419.252 1039.25 417.452 1037.47L417.504 1037.48C418.408 1037.48 419.248 1037.13 419.96 1036.54C421.255 1035.46 422.113 1033.54 422.113 1031.37C422.113 1027.99 420.051 1025.26 417.504 1025.26L417.528 1025.23C418.167 1024.6 418.512 1023.77 418.593 1022.85C418.729 1021.18 417.968 1019.23 416.408 1017.69C413.986 1015.31 410.567 1014.81 408.766 1016.58V1016.55C408.766 1014.03 405.992 1012 402.57 1012C402.472 1012 402.383 1012.02 402.287 1012.03V1050.64Z" fill="#DEA73D"/>
<path d="M397.826 1031.08C397.826 1032.33 398.322 1033.53 399.205 1034.41C400.088 1035.3 401.286 1035.79 402.535 1035.79C403.784 1035.79 404.981 1035.3 405.864 1034.41C406.747 1033.53 407.243 1032.33 407.243 1031.08C407.243 1029.83 406.747 1028.64 405.864 1027.75C404.981 1026.87 403.784 1026.37 402.535 1026.37C401.286 1026.37 400.088 1026.87 399.205 1027.75C398.322 1028.64 397.826 1029.83 397.826 1031.08Z" fill="#E5226B"/>
<path d="M402.287 1026.39V1035.77C402.361 1035.77 402.43 1035.79 402.504 1035.79C405.12 1035.79 407.243 1033.68 407.243 1031.08C407.243 1028.48 405.12 1026.37 402.504 1026.37C402.43 1026.37 402.361 1026.39 402.287 1026.39Z" fill="#C9005B"/>
<path d="M863.535 861.513C863.307 861.513 863.082 861.467 862.871 861.377C862.66 861.288 862.469 861.156 862.308 860.99C862.147 860.824 862.019 860.627 861.932 860.41C861.845 860.193 861.8 859.961 861.8 859.726V844.465C861.8 843.991 861.983 843.536 862.308 843.201C862.633 842.866 863.075 842.678 863.535 842.678C863.995 842.678 864.436 842.866 864.761 843.201C865.087 843.536 865.27 843.991 865.27 844.465V859.727C865.27 859.961 865.225 860.194 865.138 860.41C865.051 860.627 864.923 860.824 864.762 860.99C864.601 861.156 864.41 861.288 864.199 861.377C863.989 861.467 863.763 861.513 863.535 861.513Z" fill="#38B83F"/>
<path d="M863.507 863C863.276 863 863.046 862.954 862.832 862.863C862.618 862.772 862.424 862.64 862.26 862.472C862.096 862.304 861.966 862.105 861.878 861.886C861.789 861.667 861.743 861.433 861.744 861.196C861.744 854.19 852.136 848.27 840.764 848.27C839.789 848.27 839 847.463 839 846.466C839 845.468 839.789 844.661 840.764 844.661C854.507 844.661 865.27 851.924 865.27 861.196C865.27 861.433 865.224 861.667 865.136 861.886C865.047 862.105 864.918 862.304 864.754 862.472C864.59 862.639 864.396 862.772 864.182 862.863C863.968 862.953 863.739 863 863.507 863Z" fill="#38B83F"/>
<path d="M886.303 844.621C877.265 844.621 869.535 847.771 865.273 852.557V844.487C865.274 844.249 865.228 844.014 865.139 843.795C865.051 843.575 864.921 843.376 864.757 843.208C864.593 843.04 864.398 842.907 864.184 842.816C863.969 842.725 863.74 842.678 863.508 842.678C863.43 842.678 863.363 842.714 863.287 842.725V862.961C863.354 862.968 863.412 863 863.48 863C863.487 863 863.492 862.996 863.499 862.996C863.506 862.996 863.511 863 863.518 863C863.75 863 863.98 862.953 864.194 862.862C864.409 862.772 864.603 862.638 864.767 862.47C864.931 862.303 865.062 862.103 865.15 861.884C865.239 861.664 865.285 861.429 865.284 861.192C865.284 854.171 874.912 848.238 886.303 848.238C887.279 848.238 888.07 847.429 888.07 846.43C888.07 845.43 887.279 844.621 886.303 844.621Z" fill="#38B83F"/>
<path d="M848.558 819.25C846.015 819.25 843.957 821.984 843.957 825.36C843.957 827.537 844.815 829.45 846.106 830.533C846.816 831.125 847.656 831.471 848.558 831.471L848.579 831.45C846.781 833.224 847.283 836.601 849.699 838.986C851.256 840.528 853.233 841.278 854.921 841.141C855.845 841.061 856.688 840.72 857.326 840.09L857.336 840.115C857.338 842.624 860.109 844.661 863.523 844.661C865.731 844.661 867.66 843.808 868.757 842.534C869.357 841.832 869.709 841.003 869.709 840.112H869.712C870.35 840.745 871.192 841.086 872.116 841.164C873.806 841.299 875.78 840.548 877.341 839.006C879.755 836.621 880.257 833.247 878.459 831.471L878.511 831.476C879.414 831.478 880.253 831.13 880.963 830.54C882.256 829.456 883.113 827.544 883.113 825.368C883.113 821.993 881.054 819.256 878.511 819.256L878.536 819.227C879.173 818.597 879.518 817.765 879.598 816.854C879.734 815.184 878.975 813.232 877.418 811.693C875 809.305 871.586 808.808 869.789 810.584V810.546C869.789 808.034 867.019 806 863.603 806C861.399 806 859.463 806.848 858.369 808.124C857.768 808.825 857.418 809.655 857.418 810.546L857.374 810.536C855.577 808.762 852.101 809.325 849.687 811.713C848.129 813.251 847.367 815.205 847.504 816.872C847.582 817.784 847.929 818.617 848.566 819.245L848.558 819.25Z" fill="#FCBF49"/>
<path d="M863.287 844.644C863.355 844.648 863.419 844.661 863.49 844.661C864.097 844.661 864.675 844.585 865.23 844.465C865.247 844.461 865.265 844.451 865.282 844.447C865.655 844.365 866.011 844.258 866.35 844.128C866.521 844.062 866.678 843.983 866.839 843.907C867.077 843.797 867.307 843.672 867.529 843.532C867.648 843.457 867.77 843.381 867.882 843.299C868.196 843.064 868.492 842.817 868.733 842.534C869.333 841.833 869.686 841.003 869.686 840.112H869.689C870.328 840.745 871.172 841.086 872.097 841.165C873.79 841.299 875.768 840.549 877.331 839.007C879.75 836.622 880.252 833.247 878.452 831.471L878.504 831.476C879.408 831.478 880.248 831.131 880.96 830.54C882.255 829.456 883.113 827.545 883.113 825.368C883.113 821.993 881.051 819.256 878.504 819.256L878.528 819.227C879.167 818.597 879.512 817.766 879.593 816.854C879.729 815.184 878.968 813.232 877.408 811.693C874.986 809.305 871.567 808.808 869.766 810.584V810.546C869.766 808.034 866.992 806 863.57 806C863.472 806 863.383 806.024 863.287 806.028V844.644Z" fill="#DEA73D"/>
<path d="M858.826 825.083C858.826 826.331 859.322 827.529 860.205 828.412C861.088 829.295 862.286 829.791 863.535 829.791C864.784 829.791 865.981 829.295 866.864 828.412C867.747 827.529 868.243 826.331 868.243 825.083C868.243 823.834 867.747 822.636 866.864 821.753C865.981 820.87 864.784 820.374 863.535 820.374C862.286 820.374 861.088 820.87 860.205 821.753C859.322 822.636 858.826 823.834 858.826 825.083Z" fill="#E5226B"/>
<path d="M863.287 820.394V829.77C863.361 829.772 863.43 829.791 863.504 829.791C866.12 829.791 868.243 827.684 868.243 825.083C868.243 822.481 866.12 820.374 863.504 820.374C863.43 820.374 863.361 820.393 863.287 820.394Z" fill="#C9005B"/>
<path d="M533.535 490.513C533.307 490.513 533.082 490.467 532.871 490.377C532.66 490.288 532.469 490.156 532.308 489.99C532.147 489.824 532.019 489.627 531.932 489.41C531.845 489.193 531.8 488.961 531.8 488.726V473.465C531.8 472.991 531.983 472.536 532.308 472.201C532.633 471.866 533.075 471.678 533.535 471.678C533.995 471.678 534.436 471.866 534.761 472.201C535.087 472.536 535.27 472.991 535.27 473.465V488.727C535.27 488.961 535.225 489.194 535.138 489.41C535.051 489.627 534.923 489.824 534.762 489.99C534.601 490.156 534.41 490.288 534.199 490.377C533.989 490.467 533.763 490.513 533.535 490.513Z" fill="#38B83F"/>
<path d="M533.507 492C533.276 492 533.046 491.954 532.832 491.863C532.618 491.772 532.424 491.64 532.26 491.472C532.096 491.304 531.966 491.105 531.878 490.886C531.789 490.667 531.743 490.433 531.744 490.196C531.744 483.19 522.136 477.27 510.764 477.27C509.789 477.27 509 476.463 509 475.466C509 474.468 509.789 473.661 510.764 473.661C524.507 473.661 535.27 480.924 535.27 490.196C535.27 490.433 535.224 490.667 535.136 490.886C535.047 491.105 534.918 491.304 534.754 491.472C534.59 491.639 534.396 491.772 534.182 491.863C533.968 491.953 533.739 492 533.507 492Z" fill="#38B83F"/>
<path d="M556.303 473.621C547.265 473.621 539.535 476.771 535.273 481.557V473.487C535.274 473.249 535.228 473.014 535.139 472.795C535.051 472.575 534.921 472.376 534.757 472.208C534.593 472.04 534.398 471.907 534.184 471.816C533.969 471.725 533.74 471.678 533.508 471.678C533.43 471.678 533.363 471.714 533.287 471.725V491.961C533.354 491.968 533.412 492 533.48 492C533.487 492 533.492 491.996 533.499 491.996C533.506 491.996 533.511 492 533.518 492C533.75 492 533.98 491.953 534.194 491.862C534.409 491.772 534.603 491.638 534.767 491.471C534.931 491.303 535.062 491.103 535.15 490.884C535.239 490.664 535.285 490.429 535.284 490.192C535.284 483.171 544.912 477.238 556.303 477.238C557.279 477.238 558.07 476.429 558.07 475.43C558.07 474.43 557.279 473.621 556.303 473.621Z" fill="#38B83F"/>
<path d="M518.558 448.25C516.015 448.25 513.957 450.984 513.957 454.36C513.957 456.537 514.815 458.45 516.106 459.533C516.816 460.125 517.656 460.471 518.558 460.471L518.579 460.45C516.781 462.224 517.283 465.601 519.699 467.986C521.256 469.528 523.233 470.278 524.921 470.141C525.845 470.061 526.688 469.72 527.326 469.09L527.336 469.115C527.338 471.624 530.109 473.661 533.523 473.661C535.731 473.661 537.66 472.808 538.757 471.534C539.357 470.832 539.709 470.003 539.709 469.112H539.712C540.35 469.745 541.192 470.086 542.116 470.164C543.806 470.299 545.78 469.548 547.341 468.006C549.755 465.621 550.257 462.247 548.459 460.471L548.511 460.476C549.414 460.478 550.253 460.13 550.963 459.54C552.256 458.456 553.113 456.544 553.113 454.368C553.113 450.993 551.054 448.256 548.511 448.256L548.536 448.227C549.174 447.597 549.518 446.765 549.598 445.854C549.734 444.184 548.975 442.232 547.418 440.693C545 438.305 541.586 437.808 539.789 439.584V439.546C539.789 437.034 537.019 435 533.603 435C531.399 435 529.463 435.848 528.369 437.124C527.768 437.825 527.418 438.655 527.418 439.546L527.374 439.536C525.577 437.762 522.101 438.325 519.687 440.713C518.129 442.251 517.367 444.205 517.504 445.872C517.582 446.784 517.929 447.617 518.567 448.245L518.558 448.25Z" fill="#FCBF49"/>
<path d="M533.287 473.644C533.355 473.648 533.419 473.661 533.49 473.661C534.097 473.661 534.675 473.585 535.23 473.465C535.247 473.461 535.265 473.451 535.282 473.447C535.655 473.365 536.011 473.258 536.35 473.128C536.521 473.062 536.678 472.983 536.839 472.907C537.077 472.797 537.307 472.672 537.529 472.532C537.648 472.457 537.77 472.381 537.882 472.299C538.196 472.064 538.492 471.817 538.733 471.534C539.333 470.833 539.686 470.003 539.686 469.112H539.689C540.328 469.745 541.172 470.086 542.097 470.165C543.79 470.299 545.768 469.549 547.331 468.007C549.75 465.622 550.252 462.247 548.452 460.471L548.504 460.476C549.408 460.478 550.248 460.131 550.96 459.54C552.255 458.456 553.113 456.545 553.113 454.368C553.113 450.993 551.051 448.256 548.504 448.256L548.528 448.227C549.167 447.597 549.512 446.766 549.593 445.854C549.729 444.184 548.968 442.232 547.408 440.693C544.986 438.305 541.567 437.808 539.766 439.584V439.546C539.766 437.034 536.992 435 533.57 435C533.472 435 533.383 435.024 533.287 435.028V473.644Z" fill="#DEA73D"/>
<path d="M528.826 454.083C528.826 455.331 529.322 456.529 530.205 457.412C531.088 458.295 532.286 458.791 533.535 458.791C534.784 458.791 535.981 458.295 536.864 457.412C537.747 456.529 538.243 455.331 538.243 454.083C538.243 452.834 537.747 451.636 536.864 450.753C535.981 449.87 534.784 449.374 533.535 449.374C532.286 449.374 531.088 449.87 530.205 450.753C529.322 451.636 528.826 452.834 528.826 454.083Z" fill="#E5226B"/>
<path d="M533.287 449.394V458.77C533.361 458.772 533.43 458.791 533.504 458.791C536.12 458.791 538.243 456.684 538.243 454.083C538.243 451.481 536.12 449.374 533.504 449.374C533.43 449.374 533.361 449.393 533.287 449.394Z" fill="#C9005B"/>
<path d="M1193.54 580.513C1193.31 580.513 1193.08 580.467 1192.87 580.377C1192.66 580.288 1192.47 580.156 1192.31 579.99C1192.15 579.824 1192.02 579.627 1191.93 579.41C1191.84 579.193 1191.8 578.961 1191.8 578.726V563.465C1191.8 562.991 1191.98 562.536 1192.31 562.201C1192.63 561.866 1193.07 561.678 1193.53 561.678C1193.99 561.678 1194.44 561.866 1194.76 562.201C1195.09 562.536 1195.27 562.991 1195.27 563.465V578.727C1195.27 578.961 1195.22 579.194 1195.14 579.41C1195.05 579.627 1194.92 579.824 1194.76 579.99C1194.6 580.156 1194.41 580.288 1194.2 580.377C1193.99 580.467 1193.76 580.513 1193.54 580.513Z" fill="#38B83F"/>
<path d="M1193.51 582C1193.28 582 1193.05 581.954 1192.83 581.863C1192.62 581.772 1192.42 581.64 1192.26 581.472C1192.1 581.304 1191.97 581.105 1191.88 580.886C1191.79 580.667 1191.74 580.433 1191.74 580.196C1191.74 573.19 1182.14 567.27 1170.76 567.27C1169.79 567.27 1169 566.463 1169 565.466C1169 564.468 1169.79 563.661 1170.76 563.661C1184.51 563.661 1195.27 570.924 1195.27 580.196C1195.27 580.433 1195.22 580.667 1195.14 580.886C1195.05 581.105 1194.92 581.304 1194.75 581.472C1194.59 581.639 1194.4 581.772 1194.18 581.863C1193.97 581.953 1193.74 582 1193.51 582Z" fill="#38B83F"/>
<path d="M1216.3 563.621C1207.27 563.621 1199.54 566.771 1195.27 571.557V563.487C1195.27 563.249 1195.23 563.014 1195.14 562.795C1195.05 562.575 1194.92 562.376 1194.76 562.208C1194.59 562.04 1194.4 561.907 1194.18 561.816C1193.97 561.725 1193.74 561.678 1193.51 561.678C1193.43 561.678 1193.36 561.714 1193.29 561.725V581.961C1193.35 581.968 1193.41 582 1193.48 582C1193.49 582 1193.49 581.996 1193.5 581.996C1193.51 581.996 1193.51 582 1193.52 582C1193.75 582 1193.98 581.953 1194.19 581.862C1194.41 581.772 1194.6 581.638 1194.77 581.471C1194.93 581.303 1195.06 581.103 1195.15 580.884C1195.24 580.664 1195.28 580.429 1195.28 580.192C1195.28 573.171 1204.91 567.238 1216.3 567.238C1217.28 567.238 1218.07 566.429 1218.07 565.43C1218.07 564.43 1217.28 563.621 1216.3 563.621Z" fill="#38B83F"/>
<path d="M1178.56 538.25C1176.01 538.25 1173.96 540.984 1173.96 544.36C1173.96 546.537 1174.81 548.45 1176.11 549.533C1176.82 550.125 1177.66 550.471 1178.56 550.471L1178.58 550.45C1176.78 552.224 1177.28 555.601 1179.7 557.986C1181.26 559.528 1183.23 560.278 1184.92 560.141C1185.85 560.061 1186.69 559.72 1187.33 559.09L1187.34 559.115C1187.34 561.624 1190.11 563.661 1193.52 563.661C1195.73 563.661 1197.66 562.808 1198.76 561.534C1199.36 560.832 1199.71 560.003 1199.71 559.112H1199.71C1200.35 559.745 1201.19 560.086 1202.12 560.164C1203.81 560.299 1205.78 559.548 1207.34 558.006C1209.76 555.621 1210.26 552.247 1208.46 550.471L1208.51 550.476C1209.41 550.478 1210.25 550.13 1210.96 549.54C1212.26 548.456 1213.11 546.544 1213.11 544.368C1213.11 540.993 1211.05 538.256 1208.51 538.256L1208.54 538.227C1209.17 537.597 1209.52 536.765 1209.6 535.854C1209.73 534.184 1208.97 532.232 1207.42 530.693C1205 528.305 1201.59 527.808 1199.79 529.584V529.546C1199.79 527.034 1197.02 525 1193.6 525C1191.4 525 1189.46 525.848 1188.37 527.124C1187.77 527.825 1187.42 528.655 1187.42 529.546L1187.37 529.536C1185.58 527.762 1182.1 528.325 1179.69 530.713C1178.13 532.251 1177.37 534.205 1177.5 535.872C1177.58 536.784 1177.93 537.617 1178.57 538.245L1178.56 538.25Z" fill="#FCBF49"/>
<path d="M1193.29 563.644C1193.35 563.648 1193.42 563.661 1193.49 563.661C1194.1 563.661 1194.68 563.585 1195.23 563.465C1195.25 563.461 1195.26 563.451 1195.28 563.447C1195.66 563.365 1196.01 563.258 1196.35 563.128C1196.52 563.062 1196.68 562.983 1196.84 562.907C1197.08 562.797 1197.31 562.672 1197.53 562.532C1197.65 562.457 1197.77 562.381 1197.88 562.299C1198.2 562.064 1198.49 561.817 1198.73 561.534C1199.33 560.833 1199.69 560.003 1199.69 559.112H1199.69C1200.33 559.745 1201.17 560.086 1202.1 560.165C1203.79 560.299 1205.77 559.549 1207.33 558.007C1209.75 555.622 1210.25 552.247 1208.45 550.471L1208.5 550.476C1209.41 550.478 1210.25 550.131 1210.96 549.54C1212.25 548.456 1213.11 546.545 1213.11 544.368C1213.11 540.993 1211.05 538.256 1208.5 538.256L1208.53 538.227C1209.17 537.597 1209.51 536.766 1209.59 535.854C1209.73 534.184 1208.97 532.232 1207.41 530.693C1204.99 528.305 1201.57 527.808 1199.77 529.584V529.546C1199.77 527.034 1196.99 525 1193.57 525C1193.47 525 1193.38 525.024 1193.29 525.028V563.644Z" fill="#DEA73D"/>
<path d="M1188.83 544.083C1188.83 545.331 1189.32 546.529 1190.21 547.412C1191.09 548.295 1192.29 548.791 1193.53 548.791C1194.78 548.791 1195.98 548.295 1196.86 547.412C1197.75 546.529 1198.24 545.331 1198.24 544.083C1198.24 542.834 1197.75 541.636 1196.86 540.753C1195.98 539.87 1194.78 539.374 1193.53 539.374C1192.29 539.374 1191.09 539.87 1190.21 540.753C1189.32 541.636 1188.83 542.834 1188.83 544.083Z" fill="#E5226B"/>
<path d="M1193.29 539.394V548.77C1193.36 548.772 1193.43 548.791 1193.5 548.791C1196.12 548.791 1198.24 546.684 1198.24 544.083C1198.24 541.481 1196.12 539.374 1193.5 539.374C1193.43 539.374 1193.36 539.393 1193.29 539.394Z" fill="#C9005B"/>
</svg>
