<svg xmlns="http://www.w3.org/2000/svg" viewBox="0 0 223.33 123.37"><defs><style>.cls-1{fill:#43b649;}</style></defs><g id="Layer_2" data-name="Layer 2"><g id="Layer_3" data-name="Layer 3"><path class="cls-1" d="M220.8,118.3h-33c-5.16-18.43-3.86-34,3.87-46.41a39.5,39.5,0,0,1,13.8-13.56,2.53,2.53,0,0,0-1-4.8c-12.74-.56-24,5.34-32.47,17a63.11,63.11,0,0,0-3.84,6c2.3-36.29,20.32-59.58,20.52-59.84a2.53,2.53,0,0,0-2.62-4c-21.73,5.61-34.71,34.16-40.75,51.68-3.19-27.4-13.47-38-14-38.48a2.54,2.54,0,0,0-4.14,2.75c4.17,10.3.77,33.42-2.41,49.43-2.91-26.26-9.51-35.54-9.84-36a2.54,2.54,0,0,0-4.58,1.4c-.46,11.44-5.52,25.38-9.07,33.86-1.84-19,1.54-47.22,12.63-58.52a2.54,2.54,0,0,0-1.62-4.31c-.31,0-7.52-.47-15.3,6.14S83.89,37.9,80.73,52.63C75.64,31.49,67.66,16.36,56.92,7.57,46.83-.69,38,0,37.65,0A2.54,2.54,0,0,0,36.3,4.54c14.42,11.41,23,45.91,27,80C56.16,69.35,47,61.38,39.7,57.21c-11.08-6.3-20.49-5.58-20.89-5.55a2.54,2.54,0,0,0-1.38,4.49c16,13.06,25.18,28.18,26.49,43.73a43.65,43.65,0,0,1-2.29,18.42H2.53a2.54,2.54,0,0,0,0,5.07H220.8a2.54,2.54,0,0,0,0-5.07Z"/></g></g></svg>