<svg width="144" height="157" viewBox="0 0 144 157" fill="none" xmlns="http://www.w3.org/2000/svg">
<path d="M7.13403 100.5C15.134 104.1 24.8007 97 28.634 93C32.8007 95.5 38.434 101.5 27.634 105.5C16.834 109.5 9.46737 103.833 7.13403 100.5Z" fill="#F7E9D0"/>
<path d="M29.1004 90.8321C29.3678 88.9668 34.8944 84.8735 36.4543 85.003L39.797 89.6663L41.134 137.077C37.6799 137.983 30.2369 139.02 28.0976 135.911C25.9583 132.802 27.8748 104.563 29.1004 90.8321Z" fill="#C19950"/>
<path d="M40.634 148C33.034 140.4 34.134 99.5 35.634 80C58.634 73.5 106.634 64.4 114.634 80C124.634 99.5 122.134 146 117.634 152.5C114.034 157.7 95.134 157 89.634 155C84 144 85 129 85 123.5C81.5071 125.246 74.1667 124 72 123.5C73.5 131 72.8333 141.167 69 151C62.3333 153.167 48.234 155.6 40.634 148Z" fill="#E4B865"/>
<path d="M141.134 64C151.534 41.2 127.134 25.1667 113.634 20L108.134 37C109.134 51.5 135.134 70 141.134 64Z" fill="#E4B865"/>
<path d="M34.1341 79C1.73406 42.2 34.3007 20 54.6341 13.5C86.8007 4.16667 143.934 4.2 115.134 79C111.266 85.9623 108.333 81.0181 107.24 77.3686C108.198 80.8766 108.993 88.2551 105.134 92.5C101.402 96.6053 100.281 89.4227 100.148 84.5164C100.206 92.6643 99.0042 105.87 93.634 100.5C89.1555 96.0215 88.6424 92.3105 89.1279 90.2365C85.3639 99.2284 78.8901 110.323 73.634 106.5C67.634 104.9 63.8007 94.8333 62.634 90C62.3007 94.1667 60.634 102.3 56.634 101.5C52.634 100.7 52.634 92.8333 53.134 89C51.8007 91.3333 48.134 95.3 44.134 92.5C40.3742 89.8681 40.443 86.7356 41.0184 85.2616C39.9448 87.6211 37.4466 91.3125 35.134 89C32.734 86.6 33.4674 81.3333 34.1341 79Z" fill="#FFF2D9"/>
<path d="M65 64C65 64 65.4497 63.9626 66.1906 63.8974C71.0834 63.0449 74.073 57.0901 75 54C77 59.2 81.5 61.5 83.5 62C83.5 62 79.1476 62.4902 75 63C71.9383 63.3763 68.0988 63.7294 66.1906 63.8974C65.8055 63.9645 65.4086 64 65 64Z" fill="#FFADAD"/>
<path d="M83.634 44.5L96.634 44" stroke="black"/>
<path d="M55.134 59.5C66.734 69.9 73.3007 60 75.134 53.5C76.8007 58.8333 82.734 66.7 93.134 57.5" stroke="black"/>
<path d="M53.134 45H65.634" stroke="black"/>
<path d="M70.8343 48.2162C70.8343 48.2162 78.4011 47.3183 79.6424 49.5367C80.7227 51.4676 75.2373 52.5885 75.2373 52.5885C71.7648 49.515 70.8337 50.6908 70.8343 48.2162Z" fill="#251605"/>
<path d="M3.13402 70.5C-7.26598 47.7 17.134 31.6667 30.634 26.5L36.134 43.5C35.134 58 9.13403 76.5 3.13402 70.5Z" fill="#E4B865"/>
<path d="M41.765 36.6111C31.765 25.0111 44.8511 12.2778 51.8511 9.61112C51.8511 9.61112 58.634 3.61115 73.634 1.11112C88.634 -1.38891 99.8511 1.11112 99.8511 1.11112C107.451 2.71112 111.765 7.77779 110.765 9.61112C121.565 17.6111 112.265 23.9445 106.265 26.1111C108.265 35.7111 97.7649 35.1111 92.2649 33.6111C86.6649 42.0111 79.9316 37.1111 77.2649 33.6111C74.0649 44.4111 67.2649 38.1111 64.2649 33.6111C54.7649 50.1111 50.265 31.6111 50.265 35.1111C50.265 38.6111 43.7649 40.1111 41.765 36.6111Z" fill="#E4B865"/>
<circle cx="45.134" cy="54" r="1" fill="black"/>
</svg>
