<svg width="1180" height="118" viewBox="0 0 1180 118" fill="none" xmlns="http://www.w3.org/2000/svg">
<path d="M186.781 59.9688C186.698 65.1562 184.417 69.5833 179.938 73.25C175.667 76.7292 170.906 78.4271 165.656 78.3438C162.406 78.2812 158.438 77.625 153.75 76.375C152.854 75.9583 151.677 75.5312 150.219 75.0938C149.677 75.0938 149.281 75.2083 149.031 75.4375C148.802 75.6458 148.698 76.0104 148.719 76.5312C148.781 78.5521 148.844 79.3438 148.906 78.9062C148.781 79.8646 148 80.3333 146.562 80.3125C145.917 80.2917 145.333 79.5521 144.812 78.0938C141.208 67.8229 139.417 62.375 139.438 61.75C139.458 60.5417 140.042 59.9375 141.188 59.9375C141.771 59.9375 142.74 60.7812 144.094 62.4688C145.177 64.0312 146.375 65.7188 147.688 67.5312C151.146 71.2396 156.479 73.1562 163.688 73.2812C165.583 73.3229 167.469 73.1875 169.344 72.875C172.094 72.4167 173.479 71.6979 173.5 70.7188C173.521 69.5312 171.51 68.3646 167.469 67.2188C164.656 66.4479 162.344 65.9688 160.531 65.7812C154.677 65.1979 149.979 63.1875 146.438 59.75C142.917 56.2917 141.198 52.0521 141.281 47.0312C141.49 34.6771 150.635 28.6562 168.719 28.9688C171.281 29.4688 174.865 29.9896 179.469 30.5312C180.698 30.5521 181.615 29.75 182.219 28.125C182.594 27.0625 183.5 26.5312 184.938 26.5312C185.292 26.5312 185.729 26.6771 186.25 26.9688C186.771 27.2604 187.042 27.5938 187.062 27.9688C187.083 28.3854 186.875 29.25 186.438 30.5625C186.271 31.0417 185.219 33.8438 183.281 38.9688C181.969 42.4271 181.302 44.625 181.281 45.5625C181.26 46.1667 181.74 47.1979 182.719 48.6562C184.01 50.5938 184.906 52.1146 185.406 53.2188C186.365 55.3854 186.823 57.6354 186.781 59.9688ZM176.031 43.0312L176.062 41.5625C176.104 39.4167 174.135 37.5208 170.156 35.875C167.073 34.6042 164.615 33.9479 162.781 33.9062C161.26 33.8854 159.604 34.0521 157.812 34.4062C155.375 34.8854 154.146 35.5521 154.125 36.4062C154.104 37.0729 154.833 37.6875 156.312 38.25C157.333 38.6458 158.26 38.8958 159.094 39C160.698 39.2917 163.823 40.0938 168.469 41.4062C172.844 42.6562 175.062 43.2812 175.125 43.2812C175.354 43.1979 175.656 43.1146 176.031 43.0312ZM242.562 76.1562C242.562 77.0312 241.927 77.4583 240.656 77.4375C238.281 77.4167 234.771 77.3438 230.125 77.2188C225.479 77.0938 221.969 77.0208 219.594 77C217.76 76.9792 214.708 77.0625 210.438 77.25C206.188 77.4583 203.146 77.5521 201.312 77.5312C200.25 77.5312 199.719 77.1875 199.719 76.5C199.719 75.2917 200.5 74.5625 202.062 74.3125C204.104 73.9792 206.146 73.6458 208.188 73.3125C210.583 72.625 211.792 71.5 211.812 69.9375C211.833 67.9583 211.708 65.0104 211.438 61.0938C211.188 57.1562 211.073 54.1979 211.094 52.2188C211.115 50.5104 211.229 47.9688 211.438 44.5938C211.667 41.1979 211.792 38.6458 211.812 36.9375C211.812 35.8958 211.635 35.2083 211.281 34.875C211.031 34.6458 210.312 34.375 209.125 34.0625C208 33.8958 206.115 33.6146 203.469 33.2188C202.344 33.0521 201.656 32.9062 201.406 32.7812C200.823 32.4896 200.531 31.9167 200.531 31.0625C200.531 29.875 201.354 29.2917 203 29.3125C204.562 29.3333 206.729 29.4167 209.5 29.5625C212.271 29.6875 214.448 29.7604 216.031 29.7812C218.677 29.8021 222.594 29.75 227.781 29.625C232.969 29.4792 236.875 29.4167 239.5 29.4375C240.042 29.4375 240.5 29.6979 240.875 30.2188C241.271 30.7396 241.469 31.2812 241.469 31.8438C241.469 32.5729 240.74 33.2188 239.281 33.7812C237.74 34.3854 236.875 35.0521 236.688 35.7812C236.458 36.6979 236.333 38.5104 236.312 41.2188C236.292 44.1771 236.302 45.9271 236.344 46.4688C236.469 47.9479 236.625 48.9167 236.812 49.375C237.188 50.25 237.917 50.6875 239 50.6875H244.75C246.438 50.7083 247.281 50.2292 247.281 49.25C247.281 48.4583 247.25 47.2708 247.188 45.6875C247.125 44.1042 247.094 42.9167 247.094 42.125C247.094 41.5625 247.135 40.7188 247.219 39.5938C247.323 38.4688 247.375 37.625 247.375 37.0625C247.396 35.6667 246.938 34.7083 246 34.1875C245.125 33.9167 244.25 33.6458 243.375 33.375C242.438 33.0625 241.979 32.4792 242 31.625C242.021 30.6875 242.292 30.0729 242.812 29.7812C243.208 29.5521 244.01 29.4375 245.219 29.4375C246.094 29.4375 248.625 29.4896 252.812 29.5938C257.146 29.7188 259.646 29.7812 260.312 29.7812C262.854 29.8021 266.375 29.7708 270.875 29.6875C275.396 29.6042 278.917 29.5729 281.438 29.5938C283.375 29.6146 284.344 30.1562 284.344 31.2188C284.323 32.6354 283.312 33.5312 281.312 33.9062C279.458 34.1354 277.604 34.3646 275.75 34.5938C273.75 35.0521 272.74 36.0833 272.719 37.6875C272.698 39.2708 272.802 41.6979 273.031 44.9688C273.281 48.2188 273.396 50.6354 273.375 52.2188C273.354 54.0312 273.271 56.8854 273.125 60.7812C272.979 64.4062 272.906 67.25 272.906 69.3125C272.906 70.5417 273.438 71.4479 274.5 72.0312C275.583 72.5938 277.771 73.0938 281.062 73.5312C283.333 73.8438 284.458 74.6042 284.438 75.8125C284.438 76.5417 284.021 77 283.188 77.1875C282.896 77.25 282.135 77.2708 280.906 77.25C278.781 77.2292 275.698 77.1875 271.656 77.125C267.635 77.0625 264.562 77.0208 262.438 77C260.729 76.9792 258.188 77.0625 254.812 77.25C251.438 77.4375 248.896 77.5208 247.188 77.5C244.604 77.4792 243.312 76.9792 243.312 76C243.312 75.125 244 74.5 245.375 74.125C246.771 73.7292 247.469 73.125 247.469 72.3125C247.469 71.3333 247.427 70.1042 247.344 68.625C247.26 66.8958 247.208 65.6562 247.188 64.9062C247.271 63.3646 247.333 61.25 247.375 58.5625C247.333 56.9167 246.677 56.0625 245.406 56C245.406 56 243.615 56 240.031 56C238.302 56 237.385 56.5625 237.281 57.6875C237.198 58.5 237.135 60.0729 237.094 62.4062C237.031 63.8854 236.958 66.1042 236.875 69.0625C236.854 70.9167 237.344 72.2604 238.344 73.0938C238.677 73.4062 239.594 73.8542 241.094 74.4375C242.073 74.8333 242.562 75.4062 242.562 76.1562ZM359.719 60.4062C359.719 62.8854 359.479 65.4583 359 68.125C358.458 70.6667 357.917 73.2083 357.375 75.75C357.146 76.8958 355.406 77.4688 352.156 77.4688C350.385 77.4688 346.969 77.4062 341.906 77.2812C336.865 77.1562 333.458 77.0938 331.688 77.0938C321.104 77.0938 312.531 77.25 305.969 77.5625L298.969 77.875C298.49 77.875 298.042 77.6458 297.625 77.1875C297.25 76.7917 297.073 76.4062 297.094 76.0312C297.115 75.1771 297.562 74.6146 298.438 74.3438C298.854 74.1979 299.667 74.1042 300.875 74.0625C301.708 74.0625 303.115 74.0312 305.094 73.9688C308.135 73.8646 309.604 72.3542 309.5 69.4375C309.458 68.4792 309.292 65.8125 309 61.4375C308.75 57.9583 308.625 54.6979 308.625 51.6562C308.625 51.6146 308.698 49.4479 308.844 45.1562C309.01 40.8646 309.094 38.4271 309.094 37.8438C309.094 36.2812 308.26 35.0417 306.594 34.125C306.031 33.8125 303.948 33.4583 300.344 33.0625C297.427 32.7083 295.969 32.0729 295.969 31.1562C295.969 29.9688 296.542 29.375 297.688 29.375C297.208 29.375 299.708 29.4792 305.188 29.6875C310.75 29.8958 316.635 30 322.844 30C331.552 30 338.094 29.8958 342.469 29.6875C346.865 29.4583 350.802 29.3438 354.281 29.3438C355.76 29.3438 356.688 30.3021 357.062 32.2188C357.167 32.7812 357.219 34.2812 357.219 36.7188C357.219 38.5729 356.875 41.0104 356.188 44.0312C355.896 45.3021 355.271 45.9896 354.312 46.0938C353.875 46.1354 353.458 45.9896 353.062 45.6562C352.688 45.3021 352.49 44.8229 352.469 44.2188C352.448 43.4271 352.323 42.7708 352.094 42.25C350.906 39.5208 348.625 37.4896 345.25 36.1562C342.625 35.0938 339.74 34.5625 336.594 34.5625C336.219 34.5625 335.885 34.7292 335.594 35.0625C335.302 35.375 335.156 35.6875 335.156 36C335.156 37.2292 335.188 38.5938 335.25 40.0938C335.375 43.0938 335.438 45.3438 335.438 46.8438C335.438 48.1771 336.156 48.8438 337.594 48.8438C337.76 48.8438 338.521 48.7604 339.875 48.5938C341.25 48.4271 342.021 48.3438 342.188 48.3438C344.208 48.3438 346.031 48.6146 347.656 49.1562C348.865 49.5521 349.49 50.9271 349.531 53.2812C349.573 54.7812 349.146 57.375 348.25 61.0625C347.875 62.6458 347.281 63.4375 346.469 63.4375C345.615 63.4375 345.167 63.0729 345.125 62.3438C345.104 62.1354 345.115 61.8021 345.156 61.3438C345.177 60.8021 345.188 60.4271 345.188 60.2188C345.188 58.6979 344.427 57.0833 342.906 55.375C341.177 53.4375 339.188 52.4688 336.938 52.4688C336.625 52.4688 336.219 52.75 335.719 53.3125C335.698 55.7083 335.531 59.375 335.219 64.3125C334.927 69.2292 334.781 71.5938 334.781 71.4062C334.781 72.4062 335.229 72.9062 336.125 72.9062C339.354 72.9062 343.417 71.25 348.312 67.9375C351.625 65.6875 354.01 63.6562 355.469 61.8438C355.885 61.3229 356.208 60.5833 356.438 59.625C356.688 58.6667 357.208 58.1875 358 58.1875C358.562 58.1875 359.01 58.5 359.344 59.125C359.594 59.5833 359.719 60.0104 359.719 60.4062ZM435.469 60.4062C435.469 62.8854 435.229 65.4583 434.75 68.125C434.208 70.6667 433.667 73.2083 433.125 75.75C432.896 76.8958 431.156 77.4688 427.906 77.4688C426.135 77.4688 422.719 77.4062 417.656 77.2812C412.615 77.1562 409.208 77.0938 407.438 77.0938C396.854 77.0938 388.281 77.25 381.719 77.5625L374.719 77.875C374.24 77.875 373.792 77.6458 373.375 77.1875C373 76.7917 372.823 76.4062 372.844 76.0312C372.865 75.1771 373.312 74.6146 374.188 74.3438C374.604 74.1979 375.417 74.1042 376.625 74.0625C377.458 74.0625 378.865 74.0312 380.844 73.9688C383.885 73.8646 385.354 72.3542 385.25 69.4375C385.208 68.4792 385.042 65.8125 384.75 61.4375C384.5 57.9583 384.375 54.6979 384.375 51.6562C384.375 51.6146 384.448 49.4479 384.594 45.1562C384.76 40.8646 384.844 38.4271 384.844 37.8438C384.844 36.2812 384.01 35.0417 382.344 34.125C381.781 33.8125 379.698 33.4583 376.094 33.0625C373.177 32.7083 371.719 32.0729 371.719 31.1562C371.719 29.9688 372.292 29.375 373.438 29.375C372.958 29.375 375.458 29.4792 380.938 29.6875C386.5 29.8958 392.385 30 398.594 30C407.302 30 413.844 29.8958 418.219 29.6875C422.615 29.4583 426.552 29.3438 430.031 29.3438C431.51 29.3438 432.438 30.3021 432.812 32.2188C432.917 32.7812 432.969 34.2812 432.969 36.7188C432.969 38.5729 432.625 41.0104 431.938 44.0312C431.646 45.3021 431.021 45.9896 430.062 46.0938C429.625 46.1354 429.208 45.9896 428.812 45.6562C428.438 45.3021 428.24 44.8229 428.219 44.2188C428.198 43.4271 428.073 42.7708 427.844 42.25C426.656 39.5208 424.375 37.4896 421 36.1562C418.375 35.0938 415.49 34.5625 412.344 34.5625C411.969 34.5625 411.635 34.7292 411.344 35.0625C411.052 35.375 410.906 35.6875 410.906 36C410.906 37.2292 410.938 38.5938 411 40.0938C411.125 43.0938 411.188 45.3438 411.188 46.8438C411.188 48.1771 411.906 48.8438 413.344 48.8438C413.51 48.8438 414.271 48.7604 415.625 48.5938C417 48.4271 417.771 48.3438 417.938 48.3438C419.958 48.3438 421.781 48.6146 423.406 49.1562C424.615 49.5521 425.24 50.9271 425.281 53.2812C425.323 54.7812 424.896 57.375 424 61.0625C423.625 62.6458 423.031 63.4375 422.219 63.4375C421.365 63.4375 420.917 63.0729 420.875 62.3438C420.854 62.1354 420.865 61.8021 420.906 61.3438C420.927 60.8021 420.938 60.4271 420.938 60.2188C420.938 58.6979 420.177 57.0833 418.656 55.375C416.927 53.4375 414.938 52.4688 412.688 52.4688C412.375 52.4688 411.969 52.75 411.469 53.3125C411.448 55.7083 411.281 59.375 410.969 64.3125C410.677 69.2292 410.531 71.5938 410.531 71.4062C410.531 72.4062 410.979 72.9062 411.875 72.9062C415.104 72.9062 419.167 71.25 424.062 67.9375C427.375 65.6875 429.76 63.6562 431.219 61.8438C431.635 61.3229 431.958 60.5833 432.188 59.625C432.438 58.6667 432.958 58.1875 433.75 58.1875C434.312 58.1875 434.76 58.5 435.094 59.125C435.344 59.5833 435.469 60.0104 435.469 60.4062ZM487.438 64.9688C487.438 65.8021 487.406 66.9167 487.344 68.3125C487.302 69.7083 487.281 70.8229 487.281 71.6562C487.281 72.4688 488.281 73.0312 490.281 73.3438C492.073 73.5312 493.865 73.7188 495.656 73.9062C497.198 74.1146 498.188 74.3021 498.625 74.4688C499.458 74.7812 499.875 75.3438 499.875 76.1562C499.875 77.1354 499.177 77.625 497.781 77.625C497.156 77.625 492.812 77.4583 484.75 77.125C482.729 77.0417 479.958 77 476.438 77C474.958 77 472.729 77.0104 469.75 77.0312C466.792 77.0729 464.573 77.0938 463.094 77.0938C461.844 77.0938 459.917 77.2292 457.312 77.5C454.729 77.7708 452.812 77.9062 451.562 77.9062C450.271 77.9062 449.625 77.2917 449.625 76.0625C449.625 75.2292 450.896 74.5417 453.438 74C455.083 73.75 456.729 73.4896 458.375 73.2188C460.021 72.9271 460.875 72.7604 460.938 72.7188C461.438 72.4271 461.688 71.6458 461.688 70.375C461.688 69.2292 461.635 67.5104 461.531 65.2188C461.427 62.9271 461.375 61.2083 461.375 60.0625C461.375 57.5417 461.406 53.7812 461.469 48.7812C461.552 43.7604 461.594 39.9896 461.594 37.4688C461.594 34.9688 460.24 33.7188 457.531 33.7188C457.135 33.7188 456.51 33.75 455.656 33.8125C454.823 33.8542 454.208 33.875 453.812 33.875C451.688 33.875 450.625 33.1667 450.625 31.75C450.625 30.4792 451.844 29.8438 454.281 29.8438C455.552 29.8438 457.427 29.875 459.906 29.9375C462.406 30 464.292 30.0312 465.562 30.0312C466.771 30.0312 468.583 30.0208 471 30C473.417 29.9583 475.229 29.9375 476.438 29.9375C477.292 29.9375 482.281 30.0625 491.406 30.3125C495.844 30.4375 499.615 31.8542 502.719 34.5625C505.969 37.4375 507.594 41.0521 507.594 45.4062C507.594 50.0312 505.708 53.6042 501.938 56.125C498.688 58.2708 494.667 59.3438 489.875 59.3438C489.042 59.3438 488.188 59.2812 487.312 59.1562C487.396 60.6354 487.438 62.5729 487.438 64.9688ZM497.812 46.0312C497.812 43.2396 497.021 40.6562 495.438 38.2812C493.667 35.6146 491.458 34.3021 488.812 34.3438C487.688 34.3646 487 34.4688 486.75 34.6562C486.521 34.8438 486.406 35.3438 486.406 36.1562C486.406 37.0729 486.51 38.4375 486.719 40.25C486.927 42.0625 487.031 43.4271 487.031 44.3438C487.031 45.1771 487.094 46.4479 487.219 48.1562C487.344 49.8646 487.406 51.1354 487.406 51.9688C487.406 52.3438 487.406 52.9271 487.406 53.7188C487.385 54.4896 487.375 54.9792 487.375 55.1875C488.25 55.4375 489.167 55.5625 490.125 55.5625C492.667 55.5625 494.615 54.6042 495.969 52.6875C497.198 50.9792 497.812 48.7604 497.812 46.0312ZM572.531 75.6562C572.49 76.9062 571.667 77.5208 570.062 77.5C564.938 77.375 558.042 77.2083 549.375 77C546.312 76.9375 542.115 76.9896 536.781 77.1562C530.323 77.3646 526.135 77.4792 524.219 77.5C523.844 77.5 523.49 77.4271 523.156 77.2812C522.635 77.0312 522.375 76.6354 522.375 76.0938C522.396 75.2812 522.76 74.7396 523.469 74.4688C523.698 74.3854 524.542 74.2396 526 74.0312C527.083 73.9688 528.677 73.8229 530.781 73.5938C533.531 73.1979 534.917 72.2708 534.938 70.8125C534.979 68.6458 534.896 65.5833 534.688 61.625C534.458 57.3542 534.344 54.2396 534.344 52.2812C534.344 50.1979 534.49 45.3854 534.781 37.8438C534.844 36.0729 534.458 34.8333 533.625 34.125C532.875 33.4792 531.594 33.1354 529.781 33.0938C528.615 33.0521 527.25 33.0104 525.688 32.9688C524.417 32.9479 523.573 32.7708 523.156 32.4375C522.76 32.1042 522.583 31.5104 522.625 30.6562C522.667 29.7604 523.625 29.3333 525.5 29.375C529.208 29.4792 532.927 29.5833 536.656 29.6875C543.844 29.875 547.552 29.9688 547.781 29.9688C558.49 29.5938 565.531 29.4375 568.906 29.5C570.635 29.5208 571.49 30.0104 571.469 30.9688C571.448 31.8438 570.906 32.4062 569.844 32.6562C569.635 32.7188 568.469 32.8438 566.344 33.0312C564.031 33.2396 562.479 33.5417 561.688 33.9375C560.771 34.4167 560.302 35.2396 560.281 36.4062C560.281 36.6562 560.417 38.4896 560.688 41.9062C560.979 45.4271 561.125 48.4375 561.125 50.9375C561.125 53.1042 561.01 56.125 560.781 60C560.552 64.25 560.417 67.2812 560.375 69.0938C560.354 70.5938 560.583 71.6146 561.062 72.1562C561.562 72.6979 562.521 72.9792 563.938 73C564.125 73 564.906 73.1146 566.281 73.3438C567.656 73.5729 568.438 73.6875 568.625 73.6875C571.271 73.7292 572.573 74.3854 572.531 75.6562ZM634.25 59.9688C634.167 65.1562 631.885 69.5833 627.406 73.25C623.135 76.7292 618.375 78.4271 613.125 78.3438C609.875 78.2812 605.906 77.625 601.219 76.375C600.323 75.9583 599.146 75.5312 597.688 75.0938C597.146 75.0938 596.75 75.2083 596.5 75.4375C596.271 75.6458 596.167 76.0104 596.188 76.5312C596.25 78.5521 596.312 79.3438 596.375 78.9062C596.25 79.8646 595.469 80.3333 594.031 80.3125C593.385 80.2917 592.802 79.5521 592.281 78.0938C588.677 67.8229 586.885 62.375 586.906 61.75C586.927 60.5417 587.51 59.9375 588.656 59.9375C589.24 59.9375 590.208 60.7812 591.562 62.4688C592.646 64.0312 593.844 65.7188 595.156 67.5312C598.615 71.2396 603.948 73.1562 611.156 73.2812C613.052 73.3229 614.938 73.1875 616.812 72.875C619.562 72.4167 620.948 71.6979 620.969 70.7188C620.99 69.5312 618.979 68.3646 614.938 67.2188C612.125 66.4479 609.812 65.9688 608 65.7812C602.146 65.1979 597.448 63.1875 593.906 59.75C590.385 56.2917 588.667 52.0521 588.75 47.0312C588.958 34.6771 598.104 28.6562 616.188 28.9688C618.75 29.4688 622.333 29.9896 626.938 30.5312C628.167 30.5521 629.083 29.75 629.688 28.125C630.062 27.0625 630.969 26.5312 632.406 26.5312C632.76 26.5312 633.198 26.6771 633.719 26.9688C634.24 27.2604 634.51 27.5938 634.531 27.9688C634.552 28.3854 634.344 29.25 633.906 30.5625C633.74 31.0417 632.688 33.8438 630.75 38.9688C629.438 42.4271 628.771 44.625 628.75 45.5625C628.729 46.1667 629.208 47.1979 630.188 48.6562C631.479 50.5938 632.375 52.1146 632.875 53.2188C633.833 55.3854 634.292 57.6354 634.25 59.9688ZM623.5 43.0312L623.531 41.5625C623.573 39.4167 621.604 37.5208 617.625 35.875C614.542 34.6042 612.083 33.9479 610.25 33.9062C608.729 33.8854 607.073 34.0521 605.281 34.4062C602.844 34.8854 601.615 35.5521 601.594 36.4062C601.573 37.0729 602.302 37.6875 603.781 38.25C604.802 38.6458 605.729 38.8958 606.562 39C608.167 39.2917 611.292 40.0938 615.938 41.4062C620.312 42.6562 622.531 43.2812 622.594 43.2812C622.823 43.1979 623.125 43.1146 623.5 43.0312ZM690 76.1562C690 77.0312 689.365 77.4583 688.094 77.4375C685.719 77.4167 682.208 77.3438 677.562 77.2188C672.917 77.0938 669.406 77.0208 667.031 77C665.198 76.9792 662.146 77.0625 657.875 77.25C653.625 77.4583 650.583 77.5521 648.75 77.5312C647.688 77.5312 647.156 77.1875 647.156 76.5C647.156 75.2917 647.938 74.5625 649.5 74.3125C651.542 73.9792 653.583 73.6458 655.625 73.3125C658.021 72.625 659.229 71.5 659.25 69.9375C659.271 67.9583 659.146 65.0104 658.875 61.0938C658.625 57.1562 658.51 54.1979 658.531 52.2188C658.552 50.5104 658.667 47.9688 658.875 44.5938C659.104 41.1979 659.229 38.6458 659.25 36.9375C659.25 35.8958 659.073 35.2083 658.719 34.875C658.469 34.6458 657.75 34.375 656.562 34.0625C655.438 33.8958 653.552 33.6146 650.906 33.2188C649.781 33.0521 649.094 32.9062 648.844 32.7812C648.26 32.4896 647.969 31.9167 647.969 31.0625C647.969 29.875 648.792 29.2917 650.438 29.3125C652 29.3333 654.167 29.4167 656.938 29.5625C659.708 29.6875 661.885 29.7604 663.469 29.7812C666.115 29.8021 670.031 29.75 675.219 29.625C680.406 29.4792 684.312 29.4167 686.938 29.4375C687.479 29.4375 687.938 29.6979 688.312 30.2188C688.708 30.7396 688.906 31.2812 688.906 31.8438C688.906 32.5729 688.177 33.2188 686.719 33.7812C685.177 34.3854 684.312 35.0521 684.125 35.7812C683.896 36.6979 683.771 38.5104 683.75 41.2188C683.729 44.1771 683.74 45.9271 683.781 46.4688C683.906 47.9479 684.062 48.9167 684.25 49.375C684.625 50.25 685.354 50.6875 686.438 50.6875H692.188C693.875 50.7083 694.719 50.2292 694.719 49.25C694.719 48.4583 694.688 47.2708 694.625 45.6875C694.562 44.1042 694.531 42.9167 694.531 42.125C694.531 41.5625 694.573 40.7188 694.656 39.5938C694.76 38.4688 694.812 37.625 694.812 37.0625C694.833 35.6667 694.375 34.7083 693.438 34.1875C692.562 33.9167 691.688 33.6458 690.812 33.375C689.875 33.0625 689.417 32.4792 689.438 31.625C689.458 30.6875 689.729 30.0729 690.25 29.7812C690.646 29.5521 691.448 29.4375 692.656 29.4375C693.531 29.4375 696.062 29.4896 700.25 29.5938C704.583 29.7188 707.083 29.7812 707.75 29.7812C710.292 29.8021 713.812 29.7708 718.312 29.6875C722.833 29.6042 726.354 29.5729 728.875 29.5938C730.812 29.6146 731.781 30.1562 731.781 31.2188C731.76 32.6354 730.75 33.5312 728.75 33.9062C726.896 34.1354 725.042 34.3646 723.188 34.5938C721.188 35.0521 720.177 36.0833 720.156 37.6875C720.135 39.2708 720.24 41.6979 720.469 44.9688C720.719 48.2188 720.833 50.6354 720.812 52.2188C720.792 54.0312 720.708 56.8854 720.562 60.7812C720.417 64.4062 720.344 67.25 720.344 69.3125C720.344 70.5417 720.875 71.4479 721.938 72.0312C723.021 72.5938 725.208 73.0938 728.5 73.5312C730.771 73.8438 731.896 74.6042 731.875 75.8125C731.875 76.5417 731.458 77 730.625 77.1875C730.333 77.25 729.573 77.2708 728.344 77.25C726.219 77.2292 723.135 77.1875 719.094 77.125C715.073 77.0625 712 77.0208 709.875 77C708.167 76.9792 705.625 77.0625 702.25 77.25C698.875 77.4375 696.333 77.5208 694.625 77.5C692.042 77.4792 690.75 76.9792 690.75 76C690.75 75.125 691.438 74.5 692.812 74.125C694.208 73.7292 694.906 73.125 694.906 72.3125C694.906 71.3333 694.865 70.1042 694.781 68.625C694.698 66.8958 694.646 65.6562 694.625 64.9062C694.708 63.3646 694.771 61.25 694.812 58.5625C694.771 56.9167 694.115 56.0625 692.844 56C692.844 56 691.052 56 687.469 56C685.74 56 684.823 56.5625 684.719 57.6875C684.635 58.5 684.573 60.0729 684.531 62.4062C684.469 63.8854 684.396 66.1042 684.312 69.0625C684.292 70.9167 684.781 72.2604 685.781 73.0938C686.115 73.4062 687.031 73.8542 688.531 74.4375C689.51 74.8333 690 75.4062 690 76.1562Z" fill="#251605"/>
<g filter="url(#filter0_d_58_7493)">
<path d="M511 80L1173 79.9999" stroke="#18CEF6" stroke-width="2"/>
</g>
<g filter="url(#filter1_d_58_7493)">
<circle cx="1121.5" cy="78.5" r="28.5" fill="#FCBF49"/>
</g>
<path d="M31.1382 12.1582C34.4267 8.54836 38.9839 6.35097 43.8557 6.02607C52.4083 5.56497 57.8503 11.3632 58.571 12.1582C60.627 10.1218 63.2203 8.71314 66.0475 8.09705C68.8747 7.48096 71.8188 7.6829 74.5355 8.67924C77.2521 9.67559 79.6289 11.4251 81.3877 13.7232C83.1465 16.0212 84.2146 18.7727 84.4671 21.6558C87.3298 21.0252 90.3145 21.2473 93.0525 22.2947C95.7904 23.3421 98.1615 25.1688 99.8729 27.5491C101.584 29.9295 102.561 32.7592 102.682 35.6886C102.803 38.618 102.064 41.5187 100.555 44.0323C102.742 45.3486 104.504 47.2663 105.632 49.5566C106.759 51.847 107.204 54.4133 106.914 56.9496C106.623 59.4859 105.609 61.8852 103.993 63.8612C102.377 65.8373 100.227 67.3067 97.7993 68.0943C101.848 72.8643 101.922 79.3992 98.5624 83.2629C95.1021 87.2538 89.464 86.7026 88.9129 86.639C90.8735 90.4126 90.6298 94.8169 88.2983 97.6683C85.1189 101.559 78.315 102.242 73.4346 98.1294C72.4649 99.0304 63.7004 106.901 51.2425 104.717C39.0549 102.597 33.4909 92.6121 32.8339 91.3878C27.4448 98.6382 17.1754 99.1947 11.6856 93.8417C6.80529 89.0717 6.38667 80.3055 11.6856 74.3748C10.8166 73.76 4.52143 69.0695 4.01803 60.7379C3.87154 57.4343 4.61991 54.1524 6.18407 51.239C7.74823 48.3255 10.0701 45.8887 12.9044 44.186C8.97787 40.0096 7.84389 34.1637 9.99527 29.4733C12.1149 24.8835 16.5289 23.2246 17.5039 22.8854C16.8267 20.9203 16.8203 18.7861 17.4858 16.8171C18.1513 14.848 19.451 13.1554 21.1814 12.0045C22.6847 11.0828 24.4191 10.6079 26.1821 10.6351C27.9451 10.6623 29.6641 11.1906 31.1382 12.1582Z" fill="white" stroke="#262262" stroke-width="4" stroke-miterlimit="10"/>
<path d="M51.8326 55.1591H45.1766C43.1209 55.1591 41.4545 56.8255 41.4545 58.8812C41.4545 60.9368 43.1209 62.6032 45.1766 62.6032H51.8326C53.8882 62.6032 55.5546 60.9368 55.5546 58.8812C55.5546 56.8255 53.8882 55.1591 51.8326 55.1591Z" fill="#EE9CB0"/>
<path d="M93.9689 55.1591H87.313C85.2573 55.1591 83.5909 56.8255 83.5909 58.8812C83.5909 60.9368 85.2573 62.6032 87.313 62.6032H93.9689C96.0246 62.6032 97.691 60.9368 97.691 58.8812C97.691 56.8255 96.0246 55.1591 93.9689 55.1591Z" fill="#EE9CB0"/>
<path d="M59.7839 55.7209C62.1498 55.7209 64.0677 51.5776 64.0677 46.4665C64.0677 41.3554 62.1498 37.2121 59.7839 37.2121C57.4179 37.2121 55.5 41.3554 55.5 46.4665C55.5 51.5776 57.4179 55.7209 59.7839 55.7209Z" fill="#262262"/>
<path d="M79.2914 55.7209C81.6573 55.7209 83.5753 51.5776 83.5753 46.4665C83.5753 41.3554 81.6573 37.2121 79.2914 37.2121C76.9255 37.2121 75.0076 41.3554 75.0076 46.4665C75.0076 51.5776 76.9255 55.7209 79.2914 55.7209Z" fill="#262262"/>
<defs>
<filter id="filter0_d_58_7493" x="507" y="78.9999" width="670" height="10.0001" filterUnits="userSpaceOnUse" color-interpolation-filters="sRGB">
<feFlood flood-opacity="0" result="BackgroundImageFix"/>
<feColorMatrix in="SourceAlpha" type="matrix" values="0 0 0 0 0 0 0 0 0 0 0 0 0 0 0 0 0 0 127 0" result="hardAlpha"/>
<feOffset dy="4"/>
<feGaussianBlur stdDeviation="2"/>
<feComposite in2="hardAlpha" operator="out"/>
<feColorMatrix type="matrix" values="0 0 0 0 0 0 0 0 0 0 0 0 0 0 0 0 0 0 0.25 0"/>
<feBlend mode="normal" in2="BackgroundImageFix" result="effect1_dropShadow_58_7493"/>
<feBlend mode="normal" in="SourceGraphic" in2="effect1_dropShadow_58_7493" result="shape"/>
</filter>
<filter id="filter1_d_58_7493" x="1089" y="50" width="65" height="65" filterUnits="userSpaceOnUse" color-interpolation-filters="sRGB">
<feFlood flood-opacity="0" result="BackgroundImageFix"/>
<feColorMatrix in="SourceAlpha" type="matrix" values="0 0 0 0 0 0 0 0 0 0 0 0 0 0 0 0 0 0 127 0" result="hardAlpha"/>
<feOffset dy="4"/>
<feGaussianBlur stdDeviation="2"/>
<feComposite in2="hardAlpha" operator="out"/>
<feColorMatrix type="matrix" values="0 0 0 0 0 0 0 0 0 0 0 0 0 0 0 0 0 0 0.25 0"/>
<feBlend mode="normal" in2="BackgroundImageFix" result="effect1_dropShadow_58_7493"/>
<feBlend mode="normal" in="SourceGraphic" in2="effect1_dropShadow_58_7493" result="shape"/>
</filter>
</defs>
</svg>
