<svg xmlns="http://www.w3.org/2000/svg" viewBox="0 0 198.38 190.98"><defs><style>.cls-1{fill:#fff;}.cls-1,.cls-2{stroke:#262262;stroke-miterlimit:10;stroke-width:4px;}.cls-2{fill:none;}.cls-3{fill:#262262;}.cls-4{fill:#ee9cb0;}</style></defs><g id="Layer_2" data-name="Layer 2"><g id="Layer_1-2" data-name="Layer 1"><path class="cls-1" d="M53.23,13.62a35.68,35.68,0,0,1,24-11.57C93.37,1.18,103.64,12.12,105,13.62a28.75,28.75,0,0,1,48.87,17.92,28.31,28.31,0,0,1,30.36,42.22,25.11,25.11,0,0,1-5.2,45.4c7.64,9,7.78,21.33,1.44,28.62-6.53,7.53-17.17,6.49-18.21,6.37,3.7,7.12,3.24,15.43-1.16,20.81-6,7.34-18.84,8.63-28.05.87-1.83,1.7-18.37,16.55-41.88,12.43-23-4-33.5-22.84-34.74-25.15-10.17,13.68-29.55,14.73-39.91,4.63-9.21-9-10-25.54,0-36.73C14.88,129.85,3,121,2.05,105.28A34.64,34.64,0,0,1,18.82,74.05c-7.41-7.88-9.55-18.91-5.49-27.76,4-8.66,12.33-11.79,14.17-12.43a17.72,17.72,0,0,1,6.94-20.53A17.54,17.54,0,0,1,53.23,13.62Z"/><path class="cls-2" d="M48,52.07A11.16,11.16,0,0,0,56.7,71.74a7.63,7.63,0,0,0,13-6.37c2.7,4.39,7.47,6.1,10.84,4.63a7.74,7.74,0,0,0,3.9-4.63A9.56,9.56,0,0,0,94.73,71a9.37,9.37,0,0,0,7.08-6.5A10.61,10.61,0,0,0,107.45,70c4,1.51,8.79.15,12-3.47,2.44,4.31,7.41,6.15,11.42,4.63a9.26,9.26,0,0,0,5.64-7.52A6.56,6.56,0,1,0,146.34,55"/><path class="cls-2" d="M45,65.37s-29.35,71.14,49.59,72,51.91-73.73,51.91-73.73"/><ellipse class="cls-3" cx="95.43" cy="106.21" rx="4.34" ry="2.02" transform="translate(-17.94 19.41) rotate(-10.62)"/><rect class="cls-4" x="63.07" y="101.42" width="18.07" height="9.54" rx="4.77"/><rect class="cls-4" x="109.33" y="101.42" width="18.07" height="9.54" rx="4.77"/><polyline class="cls-2" points="66.1 95.23 78.1 88.43 86.92 95.23"/><polyline class="cls-2" points="102.47 95.23 114.47 88.43 123.29 95.23"/></g></g></svg>