<svg xmlns="http://www.w3.org/2000/svg" viewBox="0 0 198.38 190.98"><defs><style>.cls-1{fill:#00aeef;}.cls-1,.cls-2,.cls-5{stroke:#262262;stroke-width:4px;}.cls-1,.cls-2,.cls-5,.cls-6{stroke-miterlimit:10;}.cls-2{fill:#fff;}.cls-3{fill:#262262;}.cls-4{fill:#ee9cb0;}.cls-5,.cls-6{fill:none;}.cls-6{stroke:#1c75bc;stroke-width:3px;}</style></defs><g id="Layer_2" data-name="Layer 2"><g id="Layer_2-2" data-name="Layer 2"><path class="cls-1" d="M53.23,13.62a35.68,35.68,0,0,1,24-11.57C93.37,1.18,103.64,12.12,105,13.62a28.75,28.75,0,0,1,48.87,17.92,28.31,28.31,0,0,1,30.36,42.22,25.11,25.11,0,0,1-5.2,45.4c7.64,9,7.78,21.33,1.44,28.62-6.53,7.53-17.17,6.49-18.21,6.37,3.7,7.12,3.24,15.43-1.16,20.81-6,7.34-18.84,8.63-28.05.87-1.83,1.7-18.37,16.55-41.88,12.43-23-4-33.5-22.84-34.74-25.15-10.17,13.68-29.55,14.73-39.91,4.63-9.21-9-10-25.54,0-36.73C14.88,129.85,3,121,2.05,105.28A34.64,34.64,0,0,1,18.82,74.05c-7.41-7.88-9.55-18.91-5.49-27.76,4-8.66,12.33-11.79,14.17-12.43a17.72,17.72,0,0,1,6.94-20.53A17.54,17.54,0,0,1,53.23,13.62Z"/><path class="cls-2" d="M44.92,67.22s-29.26,71.13,49.44,72,56.19-72.29,56.19-72.29l-4.26-10.12c-1.89-1.57,2.12,6.39.14,8.67a6.89,6.89,0,0,1-10,0A9.23,9.23,0,0,1,130.82,73c-4,1.52-9-.32-11.42-4.63-3.21,3.62-8,5-12,3.47a10.54,10.54,0,0,1-5.64-5.49,9.42,9.42,0,0,1-7.09,6.51,9.56,9.56,0,0,1-10.26-5.64,7.79,7.79,0,0,1-3.9,4.62c-3.38,1.48-8.14-.23-10.85-4.62a7.62,7.62,0,0,1-13,6.36A11.16,11.16,0,0,1,48,53.92"/><ellipse class="cls-3" cx="78.05" cy="93.24" rx="5.49" ry="11.86"/><ellipse class="cls-3" cx="113.61" cy="93.24" rx="5.49" ry="11.86"/><ellipse class="cls-3" cx="95.37" cy="108.05" rx="4.34" ry="2.02" transform="translate(-18.28 19.43) rotate(-10.62)"/><rect class="cls-4" x="63.01" y="107.27" width="18.07" height="9.54" rx="4.77"/><rect class="cls-4" x="109.28" y="107.27" width="18.07" height="9.54" rx="4.77"/><path class="cls-5" d="M150.55,66.93l-4.26-10.12"/><line class="cls-6" x1="79.73" y1="80.08" x2="70.18" y2="88.54"/><line class="cls-6" x1="112.41" y1="79.8" x2="121.96" y2="88.26"/></g></g></svg>